<mxfile host="65bd71144e">
    <diagram id="I31QJyh5RNEKNEAmOOky" name="Page-1">
        <mxGraphModel dx="988" dy="1800" grid="1" gridSize="10" guides="1" tooltips="1" connect="1" arrows="1" fold="1" page="1" pageScale="1" pageWidth="850" pageHeight="1100" math="0" shadow="0">
            <root>
                <mxCell id="0"/>
                <mxCell id="1" parent="0"/>
                <mxCell id="node1" value="&lt;font style='font-size: 14.0px;' face='Times New Roman,serif' color='#000000'&gt;Logger&lt;/font&gt;&lt;hr size='1'/&gt;&lt;div&gt;&lt;font style='font-size: 14.0px;' face='Times New Roman,serif' color='#000000'&gt;add_text : str&lt;br/&gt;child_path : str&lt;br/&gt;name_path : str&lt;/font&gt;&lt;/div&gt;&lt;hr size='1'/&gt;&lt;div&gt;&lt;font style='font-size: 14.0px;' face='Times New Roman,serif' color='#000000'&gt;log(text: str)&lt;br/&gt;log_critical(text: str)&lt;br/&gt;log_debug(text: str)&lt;br/&gt;log_error(text: str)&lt;br/&gt;log_exception(exception: Exception)&lt;br/&gt;log_info(text: str)&lt;br/&gt;log_line()&lt;br/&gt;log_request(request: str)&lt;br/&gt;log_response(response: str)&lt;br/&gt;log_traceback(traceback: str)&lt;br/&gt;log_warning(text: str)&lt;br/&gt;set_add_text(add_text)&lt;/font&gt;&lt;/div&gt;" style="verticalAlign=middle;html=1;rounded=0;labelBackgroundColor=none;strokeColor=black;fillColor=none;strokeWidth=1;dashed=0;" parent="1" vertex="1">
                    <mxGeometry x="40" y="-1080" width="217" height="304" as="geometry"/>
                </mxCell>
            </root>
        </mxGraphModel>
    </diagram>
</mxfile>